HIERARCHY
ROOT Hips
{
	OFFSET -3.958830 18.904000 13.208200
	CHANNELS 6 Xposition Yposition Zposition Zrotation Yrotation Xrotation 
	JOINT LHipJoint
	{
		OFFSET 0.000000 0.000000 0.000000
		CHANNELS 3 Zrotation Yrotation Xrotation
		JOINT LeftUpLeg
		{
			OFFSET 1.800000 -1.400000 0.085000
			CHANNELS 3 Zrotation Yrotation Xrotation
			JOINT LeftLeg
			{
				OFFSET 2.215000 -6.000000 0.000000
				CHANNELS 3 Zrotation Yrotation Xrotation
				JOINT LeftFoot
				{
					OFFSET 2.500000 -6.900000 0.000000
					CHANNELS 3 Zrotation Yrotation Xrotation
					JOINT LeftToeBase
					{
						OFFSET 0.200000 -0.500000 1.950000
						CHANNELS 3 Zrotation Yrotation Xrotation
						End Site
						{
							OFFSET 0.000000 0.000000 0.000000
						}
					}
				}
			}
		}
	}
	JOINT RHipJoint
	{
		OFFSET 0.000000 0.000000 0.000000
		CHANNELS 3 Zrotation Yrotation Xrotation
		JOINT RightUpLeg
		{
			OFFSET -1.800000 -1.400000 0.085000
			CHANNELS 3 Zrotation Yrotation Xrotation
			JOINT RightLeg
			{
				OFFSET -2.215000 -6.000000 0.000000
				CHANNELS 3 Zrotation Yrotation Xrotation
				JOINT RightFoot
				{
					OFFSET -2.500000 -6.900000 0.000000
					CHANNELS 3 Zrotation Yrotation Xrotation
					JOINT RightToeBase
					{
						OFFSET -0.200000 -0.500000 1.950000
						CHANNELS 3 Zrotation Yrotation Xrotation
						End Site
						{
							OFFSET 0.000000 0.000000 0.000000
						}
					}
				}
			}
		}
	}
	JOINT LowerBack
	{
		OFFSET 0.000000 0.000000 0.000000
		CHANNELS 3 Zrotation Yrotation Xrotation
		JOINT Spine
		{
			OFFSET -0.087000 1.940000 -0.288900
			CHANNELS 3 Zrotation Yrotation Xrotation
			JOINT Spine1
			{
				OFFSET 0.000000 1.950000 0.060000
				CHANNELS 3 Zrotation Yrotation Xrotation
				JOINT Neck
				{
					OFFSET 0.000000 0.000000 0.000000
					CHANNELS 3 Zrotation Yrotation Xrotation
					JOINT Neck1
					{
						OFFSET 0.000000 1.600000 0.340000
						CHANNELS 3 Zrotation Yrotation Xrotation
						JOINT Head
						{
							OFFSET 0.000000 1.667000 -0.240000
							CHANNELS 3 Zrotation Yrotation Xrotation
							End Site
							{
								OFFSET 0.000000 0.000000 0.000000
							}
						}
					}
				}
				JOINT LeftShoulder
				{
					OFFSET 0.000000 0.000000 0.000000
					CHANNELS 3 Zrotation Yrotation Xrotation
					JOINT LeftArm
					{
						OFFSET 2.700000 1.550000 -0.730000
						CHANNELS 3 Zrotation Yrotation Xrotation
						JOINT LeftForeArm
						{
							OFFSET 5.450000 0.000000 0.000000
							CHANNELS 3 Zrotation Yrotation Xrotation
							JOINT LeftHand
							{
								OFFSET 3.450000 0.000000 0.000000
								CHANNELS 3 Zrotation Yrotation Xrotation
								JOINT LeftHandIndex1
								{
									OFFSET 0.750000 0.000000 0.000000
									CHANNELS 3 Zrotation Yrotation Xrotation
									End Site
									{
										OFFSET 0.000000 0.000000 0.000000
									}
								}
							}
						}
					}
				}
				JOINT RightShoulder
				{
					OFFSET 0.000000 0.000000 0.000000
					CHANNELS 3 Zrotation Yrotation Xrotation
					JOINT RightArm
					{
						OFFSET -2.700000 1.550000 -0.730000
						CHANNELS 3 Zrotation Yrotation Xrotation
						JOINT RightForeArm
						{
							OFFSET -5.450000 0.000000 0.000000
							CHANNELS 3 Zrotation Yrotation Xrotation
							JOINT RightHand
							{
								OFFSET -3.450000 0.000000 0.000000
								CHANNELS 3 Zrotation Yrotation Xrotation
								JOINT RightHandIndex1
								{
									OFFSET -0.750000 0.000000 0.000000
									CHANNELS 3 Zrotation Yrotation Xrotation
									End Site
									{
										OFFSET 0.000000 0.000000 0.000000
									}
								}
							}
						}
					}
				}
			}
		}
	}
}
MOTION
Frames: 10
Frame Time: 0.016667
1.774540 17.151430 -1.227380 -4.032957 20.622442 6.164661 -15.163627 12.706234 2.999379 2.297201 -0.418512 0.221977 -9.734832 4.555844 -1.825977 -0.494853 4.730457 3.302771 0.516020 -0.028240 0.343770 18.633758 -9.124832 3.745046 18.110127 5.931692 -38.578090 -1.014874 -3.679208 20.326651 0.071800 -1.886275 3.991985 0.082000 0.354670 0.134840 -4.326593 -3.126578 -7.771396 25.364768 -16.665756 17.922796 -11.315093 -11.797614 7.812384 1.287128 -6.191930 -11.477368 -12.757746 1.583690 24.069992 0.451630 -1.792740 -13.224230 -10.826161 -14.234799 0.179497 -5.934776 -19.158663 -3.599093 7.453539 -40.123552 -2.157121 -3.583460 2.955682 0.715880 0.153750 -0.236750 0.281540 8.214764 11.965943 12.502477 31.987734 -21.943697 -12.665933 65.894889 34.594248 11.030111 1.584996 -1.876427 -0.374920 0.305460 -0.035220 -0.346940 
1.796140 17.143380 -1.162910 -3.591155 19.765918 6.937743 -15.164887 12.729943 2.972261 1.864314 -0.379418 -0.236092 -9.934732 4.648257 -1.200924 -0.490528 4.721287 3.314634 0.512070 -0.027010 0.303060 18.639037 -9.117691 3.691006 17.365073 5.866819 -37.210401 0.417547 -3.568970 17.833441 0.122358 -1.735917 4.065678 0.089390 0.404430 0.143580 -4.316849 -3.179760 -7.686797 25.191486 -16.205978 15.763516 -11.261618 -11.905051 8.067832 1.152953 -6.670131 -11.479547 -13.593671 2.647718 23.706857 1.271030 -1.578360 -11.552720 -11.582100 -13.942385 0.190322 -5.335675 -18.744742 -2.879105 4.544404 -38.288511 -0.960158 -3.616592 3.002641 0.678710 0.185810 -0.269430 0.306220 9.253391 12.063479 12.629382 27.879580 -23.058168 -11.010950 70.985407 34.314503 12.446913 1.582972 -1.957941 -0.372220 0.303970 -0.030320 -0.320750 
1.833030 17.122040 -1.017300 -1.580231 18.791331 8.866737 -15.230505 12.930915 2.954606 0.252086 -0.244709 -1.428414 -10.437997 5.037611 1.070092 -0.473224 4.731007 3.329914 0.446060 -0.082960 0.229310 18.575729 -9.073470 3.519321 15.244433 5.266955 -34.439255 2.223798 -2.993982 12.044090 0.257293 -1.499668 4.212193 0.078170 0.511410 0.144770 -4.123457 -3.647456 -7.521324 22.593345 -15.195634 11.281771 -10.166933 -12.420210 8.612287 1.116222 -6.732296 -11.501428 -13.672242 4.308359 23.072610 0.433620 -0.032200 -6.546710 -12.888751 -13.613606 0.498898 -5.099894 -17.768251 -1.697369 0.884824 -35.302047 0.409408 -3.738108 3.067729 0.556140 0.298230 -0.372870 0.313660 10.594304 12.076012 12.631944 21.156219 -23.806507 -7.812386 77.824741 33.458595 14.553897 1.577309 -2.096542 -0.383740 0.290790 0.000780 -0.293430 
1.863380 17.076290 -0.854840 0.648652 16.849050 10.687495 -15.314649 13.084144 2.903211 -1.377342 -0.347391 -3.077232 -11.294345 5.696119 4.901597 -0.475780 4.865665 3.340553 0.424340 -0.083240 0.157700 18.500046 -9.029191 3.361267 12.646966 4.780926 -32.091055 4.429522 -2.666555 8.028135 0.336161 -1.610936 4.226363 0.139030 0.675880 0.138460 -3.864598 -4.022381 -7.280629 19.069325 -14.354313 6.499150 -8.691275 -12.873209 9.193874 0.833486 -6.870554 -11.044026 -13.579811 6.374048 21.300052 -0.007350 1.754390 -1.231790 -14.369619 -12.755441 0.911396 -4.931548 -15.637449 -0.306385 -4.974139 -31.798911 2.047964 -3.859338 3.165670 0.412960 0.444360 -0.503420 0.383080 12.669945 11.755231 11.844401 12.478597 -22.045551 -3.550639 84.722056 32.610619 17.630399 1.562359 -2.319509 -0.434570 0.316830 -0.010050 -0.250090 
1.882220 17.050140 -0.712390 1.919744 14.673759 9.853644 -15.345251 13.238900 2.942217 -0.967876 -1.056508 -3.527472 -13.508861 6.952897 9.811929 -0.306684 5.364086 3.173892 0.326470 -0.187510 0.116520 18.442635 -9.055138 3.233960 11.090862 4.091842 -27.997364 5.498618 -2.629390 5.617068 0.324331 -1.781738 4.216997 0.051620 0.708960 0.134970 -3.720073 -4.337315 -7.263504 16.760293 -14.310186 5.486989 -8.275073 -13.200778 8.768048 1.177310 -6.977544 -11.538251 -14.213162 8.010504 22.380144 -1.076570 4.132030 1.778760 -15.693208 -13.009994 2.087324 -4.815311 -12.071112 0.063344 -9.285156 -28.109691 2.774274 -3.876464 3.170691 0.386200 0.479420 -0.520280 0.366120 13.289004 12.531889 11.651150 9.037461 -19.475790 -1.793689 89.099067 32.959571 20.873798 1.635749 -2.328703 -0.440710 0.295470 0.010710 -0.243760 
1.888810 17.064780 -0.579740 2.473932 11.278376 6.995551 -15.324164 13.384344 3.152564 0.987286 -2.485628 -3.075898 -17.196315 8.871527 15.268234 0.000427 6.231235 2.802921 0.321840 -0.247740 0.241750 18.401548 -9.080256 3.196439 10.621199 3.354751 -22.456566 5.421835 -2.671925 3.917632 0.153902 -1.857484 4.167255 -0.087360 0.497740 0.122070 -3.665277 -4.687252 -7.608167 14.825390 -13.853591 7.668522 -7.851296 -12.663380 6.975409 2.027574 -7.234065 -12.973348 -16.638327 9.895703 28.840773 -1.979440 6.766800 1.663390 -17.742655 -13.908339 3.381197 -5.666430 -9.062446 0.127773 -11.958999 -23.175130 2.657094 -3.665235 3.086021 0.565180 0.294990 -0.341880 0.303340 13.680867 14.287635 12.341853 8.839226 -18.224795 -1.614440 91.409496 34.808906 24.626435 1.812332 -2.202596 -0.390090 0.218570 -0.037100 -0.303250 
1.905560 17.058260 -0.421590 3.171645 7.191766 4.765648 -15.325014 13.258861 3.423837 3.261764 -4.403704 -3.769894 -22.384236 11.704644 21.158628 0.324261 7.618152 2.280641 0.328990 -0.262560 0.266470 18.384901 -9.064750 3.127664 10.663394 2.802324 -18.115031 3.914989 -2.662543 3.613952 0.060454 -2.053651 4.097519 -0.121640 0.440070 0.129440 -3.581925 -4.698110 -7.843578 13.264545 -12.653029 8.428905 -7.612576 -11.402617 6.292915 2.360283 -7.412263 -13.641590 -18.146988 11.133137 32.369536 -1.715730 7.384780 2.553650 -19.216162 -13.890024 4.071960 -7.878252 -7.007326 0.445983 -13.932255 -19.195363 2.203447 -3.621183 3.041245 0.623480 0.245930 -0.295650 0.284310 14.652340 15.014153 12.513721 9.815240 -17.150692 -1.734327 92.918293 38.707518 29.539164 1.874532 -2.167765 -0.370990 0.187650 -0.037210 -0.322690 
1.903670 17.050880 -0.280470 2.914067 0.777812 2.119562 -15.290066 12.926562 3.766605 7.100699 -5.520823 -4.546648 -29.299413 15.504624 24.843547 0.731247 9.190314 1.760357 0.354930 -0.219210 0.301210 18.420005 -9.082532 3.091442 12.385171 2.496046 -15.077722 0.912893 -2.717810 6.772116 -0.012981 -2.258888 4.040050 -0.102530 0.432040 0.117440 -3.617270 -4.263809 -8.073073 13.167372 -10.539856 10.315461 -8.055059 -8.861737 6.390803 2.617289 -7.498193 -13.730764 -18.864996 11.190501 34.485223 -2.108720 7.086380 2.174800 -20.170590 -13.640939 4.380479 -10.719564 -5.711284 0.488919 -14.295624 -16.110600 1.548490 -3.649621 2.934943 0.621100 0.239800 -0.269540 0.291910 15.172700 15.579333 12.242309 12.789286 -14.845922 -2.828675 91.842281 40.839345 30.636972 1.916666 -2.103711 -0.361780 0.225400 -0.062400 -0.315680 
1.894760 17.028920 -0.177460 2.929138 -5.530094 0.080784 -15.294424 12.541958 4.157071 11.160120 -5.838561 -6.760311 -36.246467 20.213339 28.341980 1.035631 10.815148 1.238505 0.343950 -0.250370 0.300120 18.433185 -9.044357 3.051661 13.839192 2.492439 -13.723614 -2.116346 -2.624128 10.838285 -0.047757 -2.519096 3.942345 -0.071150 0.482530 0.117610 -3.605356 -3.807154 -8.269281 12.948591 -8.397261 12.489089 -8.304991 -6.162874 6.523864 2.848687 -7.576372 -13.276273 -18.654675 11.213246 34.262923 -2.936160 7.187390 1.415550 -20.917363 -12.830385 4.177397 -14.199049 -4.893795 0.382760 -14.173751 -14.324031 0.925196 -3.747155 2.840298 0.652330 0.279790 -0.305720 0.284340 15.484580 15.577288 11.675443 16.272353 -12.469244 -4.208495 90.761717 43.495046 31.873959 1.888000 -2.046897 -0.430350 0.279160 -0.021070 -0.347330 
1.887600 17.015260 -0.084990 3.678423 -9.028369 -2.182147 -15.318717 12.240112 4.588877 15.121183 -5.908333 -9.495558 -41.723620 25.259510 32.249234 1.379372 12.113603 0.791672 0.406330 -0.189820 0.378380 18.414420 -9.045353 2.949918 13.893987 2.528408 -13.165763 -4.288463 -2.538924 15.824476 -0.153668 -2.794557 3.797591 -0.052860 0.389210 0.141830 -3.544152 -3.450321 -8.498693 11.685941 -6.989383 15.006010 -8.752838 -4.235288 6.424447 3.124064 -7.062049 -13.015443 -17.844302 10.781135 36.264010 -3.649060 7.000290 -0.905470 -21.214322 -12.047067 3.915848 -17.641946 -4.243906 -0.043535 -14.326982 -13.079659 0.519553 -3.729845 2.813842 0.699050 0.224370 -0.235490 0.258710 15.170078 15.090266 11.281991 23.124016 -10.859456 -6.573579 87.379014 46.785013 31.815848 1.923396 -1.979974 -0.389420 0.249610 -0.043830 -0.372780 
